<svg aria-hidden="true" style="position:absolute;width:0;height:0;overflow:hidden" xmlns="http://www.w3.org/2000/svg">
  <defs>
    <symbol id="icon-envelope" viewBox="0 0 43 32">
      <path d="M39 0H4C2 0 0 2 0 4v24c0 2 2 4 4 4h35c2 0 4-2 4-4V4c0-2-2-4-4-4zm0 3L21 18 3 3h36zm0 26H4l-1-1V6l17 15a1 1 0 0 0 2 0L40 6v22l-1 1z"/>
    </symbol>
    <symbol id="icon-smartphone" viewBox="0 0 20 32">
      <path  d="M17 0H3C1 0 0 1 0 3v26c0 2 1 3 3 3h14c2 0 3-1 3-3V3c0-2-1-3-3-3zM3 2h14l1 1v21H2V3l1-1zm14 28H3l-1-1v-3h16v3l-1 1z"/>
      <path  d="M5 27v2H3v-2h2z"/>
    </symbol>
<symbol id="icon-Logo6" viewBox="0 0 57 32">
<path  d="M28.267 14.4v-3.2l1.067-0.533h1.067l0.533 1.067v0.533h-1.067v-1.067h-0.533v3.2h0.533v-1.067h1.067v0.533l-0.533 0.533-1.067 0.533-1.067-0.533zM32 14.4v-3.733h2.133l0.533 1.067v1.6l-0.533 1.067-1.067 0.533-1.067-0.533zM33.6 14.4v-3.2h-0.533l-0.533 0.533v2.133l0.533 0.533c0.077 0.045 0.168 0.071 0.267 0.071s0.19-0.027 0.269-0.073l-0.003 0.001zM35.733 10.667h1.067l0.533 3.2 0.533-3.2h1.067v4.267h-0.533v-3.2l-0.533 3.2h-0.533l-1.067-3.2v3.2h-0.533v-4.267zM40 10.667h1.6c1.067 0 1.067 0.533 1.067 1.067 0 1.067 0 1.067-1.067 1.067h-0.533v2.133h-1.067v-4.267zM41.6 12.267h0.533v-1.067h-1.067v1.067h0.533zM44.267 10.667h1.067l1.067 4.267h-1.067v-1.067h-1.067v1.067h-1.067l1.067-4.267zM44.8 13.333v-1.6l-0.533 1.6h0.533zM46.933 10.667h0.533l1.6 2.667v-2.667h0.533v4.267h-0.533l-1.067-2.667v2.667h-1.067v-4.267zM51.2 13.333l-1.067-2.667h1.067l0.533 1.6 0.533-1.6h1.067l-1.067 2.667v1.6h-1.067v-1.6zM29.867 17.067h-0.533v1.6h-0.533v-1.6h1.067zM32 18.667l-0.533-0.533h-1.067v0.533h-0.533l1.067-1.6h0.533l0.533 1.6zM30.933 18.133h0.533v-1.067h-0.533v1.067zM33.6 18.667h0.533v-1.067h0.533v1.067c-0.080 0.014-0.172 0.022-0.267 0.022s-0.187-0.008-0.276-0.024l0.010 0.001h-1.067l-0.533-0.533v-0.533l0.533-0.533c0.159-0.058 0.342-0.091 0.533-0.091s0.375 0.034 0.544 0.095l-0.011-0.004c0.080-0.021 0.172-0.034 0.267-0.034s0.187 0.012 0.274 0.036l-0.007-0.002h-0.533c-0.080-0.021-0.172-0.034-0.267-0.034s-0.187 0.012-0.274 0.036l0.007-0.002h-0.533v1.6c0.077 0.045 0.168 0.071 0.267 0.071s0.19-0.027 0.269-0.073l-0.003 0.001zM36.8 18.667h-0.533v-1.6h0.533v1.6zM38.933 18.667h-0.533v-1.6h0.533v1.6zM40 17.067l1.067 1.067v-1.067h0.533v1.6h-0.533l-1.067-1.6v1.6h-0.533v-1.6h0.533zM43.733 17.067h-1.067v0.533h1.067v0.533h-1.067v0.533h-0.533v-1.6h1.6zM11.2 4.8l13.867 3.2v11.733l-13.867-3.2v-11.733zM10.667 3.733v13.333l15.467 3.733v-13.333l-15.467-3.733z"></path>
<path  d="M18.667 27.2l-15.467-3.733v-13.867l15.467 4.267v13.333z"></path>
<path d="M10.667 4.267l13.333 3.733-5.333 4.8-13.867-3.2 5.867-5.333zM10.667 3.733l-7.467 5.867 15.467 4.267 7.467-6.4-15.467-3.733zM19.733 26.133l6.4-5.333-6.4-1.6v6.933z"></path>
</symbol>
   <symbol id="icon-Logo5" viewBox="0 0 57 32">
<path d="M14.4 24v1.067h-2.667v-3.2h1.6l0.533 0.533h0.533v1.067h-0.533l0.533 0.533zM12.267 23.467h1.067l0.533-0.533-0.533-0.533h-1.067v1.067zM13.333 24.533h0.533v-0.533h-1.6v0.533h1.067zM17.6 25.067l-1.067-1.067h-0.533v1.067h-0.533v-3.2h1.6l1.067 1.067v0.533l-1.067 0.533 1.067 1.067h-0.533zM16 23.467h1.067l0.533-0.533h-0.533v-0.533h-1.067v1.067zM21.333 24.533h-1.6v0.533h-1.067l1.6-3.2h0.533l1.6 3.2h-1.067v-0.533zM21.333 24l-0.533-1.067-0.533 1.067h1.067zM26.133 25.067h-0.533l-1.6-2.133v2.133h-0.533v-3.2h0.533l1.6 2.133v-2.133h0.533v3.2zM30.4 24.533l-0.533 0.533h-2.133v-3.2h1.067l1.067 0.533 0.533 0.533c0.135 0.23 0.214 0.505 0.214 0.8s-0.080 0.57-0.218 0.808l0.004-0.008zM29.333 24.533l0.533-1.067-1.067-1.067h-0.533v2.133h1.067zM21.867 3.733s9.067 3.2 9.067 8v7.467s-9.6-3.2-9.067-7.467v-8zM38.933 17.6c2.133-1.067 4.267-2.133 6.4-2.133v-2.667c-2.667 1.067-4.8 2.667-6.4 4.8z"></path>
<path  d="M37.867 18.133c1.6-2.667 4.267-4.8 7.467-5.867v-6.933s-13.333 4.8-13.333 11.2v11.2l1.6-0.533v-1.067c0.533-3.2 2.133-5.867 4.267-8z"></path>
<path d="M36.8 22.4l0.533-2.133c-1.557 1.688-2.55 3.918-2.666 6.377l-0.001 0.023 2.667-1.067-0.533-3.2zM37.333 22.4v3.2c3.733-2.133 8-5.333 8-9.067-2.667 0-5.333 1.067-6.933 2.667l-1.067 3.2z"></path>
</symbol>
  <symbol id="icon-Logo4" viewBox="0 0 57 32">
<path  d="M12.8 11.2c-1.067 0-2.133 1.067-2.133 2.133s1.067 2.133 2.133 2.133c1.6 0 2.133-1.067 2.133-2.133s-0.533-2.133-2.133-2.133zM29.867 10.667c0-1.6-0.533-3.2-1.6-4.267l-4.8-1.6c-2.133 0-3.733 0.533-4.8 1.6-1.6 1.067-2.133 2.667-2.133 4.267v8.533s13.333-1.067 13.333-8.533zM5.867 22.4c0 1.067 0.533 2.133 1.6 2.667l3.2 1.067 3.2-1.067c1.067-0.533 1.067-1.6 1.067-2.667v-6.4s-9.067 1.067-9.067 6.4zM10.667 23.467l-1.067-0.533v-0.533l-0.533-0.533 0.533-0.533h2.133c0.113 0.167 0.18 0.372 0.18 0.593 0 0.463-0.294 0.856-0.706 1.004l-0.007 0.002-0.533 0.533zM19.733 22.4h-0.533v1.067h-0.533v-2.133h1.6v0.533h-1.067v0.533h0.533zM22.4 22.4l-0.533 0.533c-0.109 0.238-0.296 0.424-0.527 0.531l-0.007 0.003h-0.533l-0.533-0.533v-1.067c0.187-0.326 0.532-0.542 0.929-0.542 0.049 0 0.096 0.003 0.143 0.010l-0.005-0.001h0.533v0.533l0.533 0.533zM21.867 22.4v-0.533h-1.067v1.067l0.533 0.533 0.533-0.533v-0.533zM23.467 22.933v-0.533h-0.533l-0.533-0.533v-0.533h1.6v0.533h-1.067l0.533 0.533h0.533v1.067h-1.6v-0.533h0.533l0.533 0.533v-0.533zM26.133 21.867h-0.533v1.6h-0.533v-1.6h-0.533v-0.533h1.6v0.533zM27.733 22.4h-0.533v1.067h-0.533v-2.133h1.6v0.533h-1.067v0.533h0.533zM29.333 22.933h-0.533v0.533h-0.533v-2.133h1.6v1.067h-0.533l0.533 1.067h-0.533v-0.533zM28.8 22.4h0.533v-0.533h-0.533v0.533zM31.467 22.933v0.533h-0.533v-2.133h1.6v0.533h0.533l-1.067 1.067h-0.533zM31.467 22.4h1.067v-0.533h-1.067v0.533zM34.667 22.4h-1.067v1.067h-0.533v-2.133h1.6v0.533h-1.067v0.533h1.067zM36.8 21.867h-0.533v1.6h-0.533v-1.6h-1.067v-0.533h2.133v0.533zM38.4 22.4h-1.067v1.067h-0.533v-2.133h1.6v0.533h-1.067v0.533h1.067zM39.467 22.933v0.533h-0.533v-2.133h1.6v1.067h-0.533l0.533 1.067h-0.533l-0.533-0.533zM39.467 22.4h0.533v-0.533h-0.533v0.533zM42.133 22.933l-0.533-0.533h-0.533v-1.067h1.067l0.533 0.533h-1.067v0.533h0.533l0.533 0.533-0.533 0.533h-1.067l-0.533-0.533h0.533l0.533 0.533 0.533-0.533z"></path>
</symbol>
  <symbol id="icon-Logo3" viewBox="0 0 57 32">
<path  d="M19.2 26.133h0.533l-0.533 0.533h-1.067v-0.533h-0.533c-0.090-0.153-0.143-0.337-0.143-0.533s0.053-0.38 0.146-0.538l-0.003 0.005h0.533v-0.533c0.159-0.058 0.342-0.091 0.533-0.091s0.375 0.034 0.544 0.095l-0.011-0.004 0.533 0.533h-0.533c-0.080-0.021-0.172-0.034-0.267-0.034s-0.187 0.012-0.274 0.036l0.007-0.002h-0.533v1.067h1.067zM22.933 25.6v0.533h-0.533v0.533h-1.067l-0.533-0.533v-1.067l0.533-0.533h1.067v0.533c0.238 0.109 0.424 0.296 0.531 0.527l0.003 0.007zM22.4 25.6v-0.533c-0.076-0.045-0.168-0.071-0.267-0.071s-0.19 0.027-0.269 0.073l0.003-0.001h-1.067v1.067c0.076 0.045 0.168 0.071 0.267 0.071s0.19-0.027 0.269-0.073l-0.003 0.001h1.067v-0.533zM25.067 26.133l1.067-1.6v0.533l-1.067 1.067-1.067-1.067v1.6-2.133h0.533l0.533 1.6zM27.733 25.6v1.067-2.133h1.067v1.067l-0.533 0.533-0.533-0.533zM27.733 25.6h1.067v-0.533h-1.067v0.533zM32 26.667h-0.533v-0.533h-1.067l-0.533 0.533 0.533-2.133h0.533l1.067 2.133zM30.4 26.133h0.533v-1.067l-0.533 1.067zM33.067 24.533l1.067 1.6v-1.6h0.533v2.133h-0.533l-1.067-1.6v1.6-2.133zM36.8 25.6v1.067h-0.533v-1.067l-0.533-1.067h0.533v1.067c0.080-0.021 0.172-0.034 0.267-0.034s0.187 0.012 0.274 0.036l-0.007-0.002zM25.067 21.333c2.133-0.533 3.733-1.6 4.8-3.2 1.6-1.6 2.133-3.733 2.133-5.333l-2.133-2.133c0 2.133 0 4.267-1.067 5.867-0.533 2.133-2.133 3.733-3.733 4.8z"></path>
<path  d="M24 21.333c2.133-1.067 3.733-2.667 4.267-4.8 1.067-2.133 1.067-4.267 0.533-6.4l-3.2-2.667c0.983 1.679 1.564 3.698 1.564 5.852 0 3.102-1.204 5.923-3.17 8.021l0.006-0.006zM34.667 14.933c-0.533 2.133-1.6 3.733-3.733 5.333l-1.6 1.067 3.733-2.133 2.667-3.2-1.067-1.067z"></path>
<path  d="M34.133 14.4l-1.6-1.6c0 2.133-1.067 3.733-2.133 5.333s-2.133 2.667-4.267 3.2h1.6l4.267-2.667 2.133-4.267zM24.533 6.4l-2.133-1.6c-2.133 0.533-3.733 1.6-4.8 3.2-1.067 1.067-1.6 3.2-1.6 4.8 0 2.133 0.533 3.733 2.133 5.333 1.067 1.6 3.2 2.667 5.333 3.2 2.133-2.133 3.2-4.8 3.2-7.467s-0.533-5.333-2.133-7.467zM38.933 14.4c0-2.667-1.067-4.8-2.667-6.4-1.881-1.697-4.386-2.736-7.133-2.736-1.266 0-2.481 0.221-3.608 0.626l0.074-0.023 12.8 11.733 0.533-3.2z"></path>
</symbol>
    <symbol id="icon-Logo2" viewBox="0 0 57 32">
<path  d="M26.667 3.2h-0.533c-0.079-0.002-0.173-0.003-0.267-0.003s-0.187 0.001-0.281 0.003l0.014-0c-2.133 0-4.267 0.533-5.867 1.6v11.733h0.533c1.739-0.611 3.746-0.996 5.834-1.066l0.033-0.001v1.6h-1.067c-2.577 0.224-4.935 0.988-7.017 2.177l0.084-0.044v-15.467c2.291-1.341 5.044-2.133 7.982-2.133 0.006 0 0.012 0 0.019 0h-0.001c1 0.112 1.904 0.299 2.776 0.562l-0.11-0.028v1.6l-1.6-0.533h-0.533zM29.333 4.8h1.067c2.944-0.023 5.698-0.811 8.081-2.176l-0.081 0.043v14.933c-2.189 1.198-4.796 1.903-7.568 1.903-1.096 0-2.167-0.11-3.202-0.32l0.103 0.017v-14.933c0.434 0.186 0.967 0.369 1.514 0.514l0.086 0.019zM36.8 4.8h-0.533l-1.067 0.533c-1.366 0.369-2.935 0.581-4.553 0.581-0.462 0-0.92-0.017-1.374-0.051l0.060 0.004h-0.533v12.267h1.6c2.343-0.034 4.541-0.621 6.479-1.638l-0.079 0.038v-11.733z"></path>
<path d="M19.2 24c-0.076-0.045-0.168-0.071-0.267-0.071s-0.19 0.027-0.269 0.073l0.003-0.001h-0.533c-0.238 0.109-0.424 0.296-0.531 0.527l-0.003 0.007v2.667h0.533v0.533h0.533c0.326-0.187 0.542-0.532 0.542-0.929 0-0.049-0.003-0.096-0.010-0.143l0.001 0.005h-0.533v0.533c-0.076 0.045-0.168 0.071-0.267 0.071s-0.19-0.027-0.269-0.073l0.003 0.001v-2.667c0.076-0.045 0.168-0.071 0.267-0.071s0.19 0.027 0.269 0.073l-0.003-0.001v0.533h0.533v-0.533c0.021-0.080 0.034-0.172 0.034-0.267s-0.012-0.187-0.036-0.274l0.002 0.007zM22.4 24c-0.153-0.090-0.337-0.143-0.533-0.143s-0.38 0.053-0.538 0.146l0.005-0.003h-0.533v3.2l0.533 0.533c0.080 0.021 0.172 0.034 0.267 0.034s0.187-0.012 0.274-0.036l-0.007 0.002 0.533-0.533c0.021-0.080 0.034-0.172 0.034-0.267s-0.012-0.187-0.036-0.274l0.002 0.007v-2.667zM21.867 26.667c0.045 0.076 0.071 0.168 0.071 0.267s-0.027 0.19-0.073 0.269l0.001-0.003c-0.076 0.045-0.168 0.071-0.267 0.071s-0.19-0.027-0.269-0.073l0.003 0.001c-0.045-0.076-0.071-0.168-0.071-0.267s0.027-0.19 0.073-0.269l-0.001 0.003v-2.133c0.076-0.045 0.168-0.071 0.267-0.071s0.19 0.027 0.269 0.073l-0.003-0.001v2.133zM26.133 27.733v-3.733h-0.533l-0.533 1.6-0.533-1.6h-0.533v3.733h0.533v-2.133l0.533 1.067 0.533-1.067v2.133h0.533zM29.333 24h-1.6v3.733h0.533v-1.6h1.067v-0.533c0.034-0.16 0.054-0.345 0.054-0.533s-0.020-0.373-0.057-0.551l0.003 0.017v-0.533zM28.8 25.067v0.533h-0.533v-1.067h0.533v0.533zM32 24h-0.533l-1.067 3.733h0.533l0.533-1.067h0.533v1.067h0.533l-0.533-3.733zM31.467 26.133v-1.067l0.533 1.067h-0.533zM35.2 26.133l-1.067-2.133v1.6h0.533l0.533 2.133h0.533v-3.733h-0.533v2.133zM38.4 24l-0.533 1.6-0.533-1.6h-0.533l1.067 2.133v1.6h0.533v-1.6l0.533-2.133h-0.533zM17.6 28.8v0.533h0.533v-1.067h-0.533v0.533zM19.733 28.267l-0.533 1.067h1.067l-0.533-1.067zM21.867 28.8v0.533l-0.533-0.533h1.067l-0.533-0.533-0.533 0.533v0.533c0.076 0.045 0.168 0.071 0.267 0.071s0.19-0.027 0.269-0.073l-0.003 0.001h0.533v-0.533h-0.533zM24 28.267v0zM25.6 28.267v0zM27.733 28.8l-0.533-0.533v0.533l0.533 0.533v-0.533zM29.333 28.8v-0.533h-0.533v1.067h0.533v-0.533zM33.067 28.8h-0.533v0h0.533v0zM34.667 28.8h0.533v-0.533h-0.533v0.533zM36.8 28.8v-0.533h-0.533v0.533h0.533v0zM36.8 28.8v0zM38.4 28.8h0.533v-0.533h-0.533v0.533z"></path>
</symbol>
    <symbol id="icon-Logo1" viewBox="0 0 57 32">
<path  d="M20.267 3.733l3.733 3.733h-6.933v17.067h18.133v-6.4l3.733 3.2v-17.6h-18.667zM35.2 17.6l-10.667-10.133h10.667v10.133zM32 21.867h-12.267v-11.733h1.067v11.2h11.2v0.533zM22.933 26.667l-0.533 1.067-0.533-1.067h-0.533l0.533 1.067v1.067h0.533v-1.067l0.533-1.067zM23.467 28.8v-0.533h0.533l0.533 0.533-0.533-2.133h-0.533l-0.533 2.133h0.533zM24 27.2v0.533h-0.533l0.533-0.533zM25.6 27.733v0.533l0.533 0.533 0.533-0.533v0.533h0.533l-1.067-1.067 0.533-0.533c0.045-0.076 0.071-0.168 0.071-0.267s-0.027-0.19-0.073-0.269l0.001 0.003h-1.067v1.067zM26.133 28.267h-0.533l0.533-0.533v0.533zM29.333 28.267v-0.533h-0.533v0.533h-0.533v-1.067h1.067v-0.533h-1.067l-0.533 0.533v1.067l0.533 0.533h0.533l0.533-0.533zM30.933 28.267v-1.067c0-0.295-0.239-0.533-0.533-0.533v0h-0.533v0.533l-0.533 0.533 1.067 1.067 0.533-0.533zM30.933 27.2v1.067h-1.067v-1.067h1.067z"></path>
</symbol>
    <symbol id="icon-astronaut-1" viewBox="0 0 32 32">
      <path fill="#2196f3" style="fill:var(--color3, #2196f3)" d="M32 5V4h-2l-1-2h-1l-1 2h-2a1 1 0 0 0 0 1l1 1v3h1l1-1 2 1a1 1 0 0 0 1-1l-1-2 2-1zm-2 1h-1l1 1h-1a1 1 0 0 0-1 0h-1V6l-1-1h2V4l1 1h1v1zM26 21h-1v1h1v-1zM26 23h-1v1h1v-1zM27 22h-1v1h1v-1zM25 22h-1v1h1v-1zM22 26h-1v1h1v-1zM22 29h-1v1h1v-1zM23 27h-1v2h1v-2zM21 27h-1v2h1v-2zM16 24h-1v1h1v-1zM16 26h-1v1h1v-1zM17 25h-1v1h1v-1zM15 25h-1v1h1v-1zM6 6H5v1h1V6zM6 8H5v1h1V8zM7 7H6v1h1V7zM5 7H4v1h1V7z"/>
      <path fill="#212121" style="fill:var(--color4, #212121)" d="m25 14-1-1-2 1-1 1-2 1h-1a7 7 0 0 0-3-14 7 7 0 0 0-6 11H6l-3 2-2 1a2 2 0 0 0 1 3h1l1-1 2-1h2l-6 5-1 2a2 2 0 0 0 0 2 2 2 0 0 0 2 0l2-1 1-2 1 1-2 2-1 1a2 2 0 0 0 0 3 2 2 0 0 0 2 0l4-4 1-1 5-6 4 1 3-2 2-1v-3zM2 18a1 1 0 0 1-1-1l2-1v1l-1 1zm4-2-2 1v-2l2-1v2zm15-7-1 3-4-2-1-1 2-5c2 0 4 3 4 5zM9 9a6 6 0 0 1 7-5l-2 4a2 2 0 1 0 0 4l2-1 4 2A6 6 0 0 1 9 9zm6 1a1 1 0 0 1-2 0 1 1 0 0 1 2 0zM2 25a1 1 0 0 1 0-1l1-1v1l-1 1zm4 4H5a1 1 0 0 1 0-1l1-1 1 1-1 1zm3-4-2 2v-1l1-1v-1l-1-2H6l-2 1H3l3-3 4 4-1 1zm7-7v1l-5 5-5-5 3-2a1 1 0 0 0 0-1H7v-2h3a7 7 0 0 0 6 2l3 1v2l-3-1zm4 1v-2l1-1 1 1-2 2zm4-3-1 1-1-2h1s0-1 0 0a1 1 0 0 1 1 1z"/>
      <path fill="#212121" style="fill:var(--color4, #212121)" d="m14 19-3-3-2 3 2 2 3-2zm-3 1-1-1 1-1 1 1-1 1zM17 5v1l2 2h1c0-2-2-3-3-3zM20 9h-1v1h1V9z"/>
    </symbol>
    <symbol id="icon-instagram" viewBox="0 0 32 32">
      <path  d="m32 9-1-3c0-2-1-3-2-3l-2-2-4-1A110 110 0 0 0 6 1L3 3C2 3 1 4 1 6L0 9a110 110 0 0 0 1 17c0 2 1 3 2 3l3 2 3 1a117 117 0 0 0 18-1c2-1 3-2 4-5l1-3V9zm-3 13v3c-1 2-2 3-4 3l-2 1a113 113 0 0 1-16-1l-2-1-1-2-1-3A113 113 0 0 1 4 7l1-2 2-1 3-1a113 113 0 0 1 16 1l1 1 2 2v15z"/>
      <path d="M16 8a8 8 0 1 0 0 16 8 8 0 0 0 0-16zm0 13a5 5 0 1 1 0-10 5 5 0 0 1 0 10zM27 7a2 2 0 1 1-4 0 2 2 0 0 1 4 0z"/>
    </symbol>
    <symbol id="icon-facebook" viewBox="0 0 32 32">
      <path  d="M21 5h3V0h-4c-4 0-7 3-7 8v4H8v6h5v14h6V18h4l1-6h-5V8c0-2 0-3 2-3z"/>
    </symbol>
    <symbol id="icon-twitter" viewBox="0 0 32 32">
      <path  d="m32 6-4 1 3-3V3l-4 2a7 7 0 0 0-11 5v1C10 11 5 8 2 4L1 8c0 2 1 4 3 5l-3-1c0 3 3 6 5 7h1-3c0 2 3 4 6 4-3 2-5 3-8 3H0A19 19 0 0 0 29 9l3-3z"/>
    </symbol>
    <symbol id="icon-linkedin" viewBox="0 0 32 32">
      <path  d="M32 32V20c0-5-1-10-8-10-3 0-5 2-6 4v-3h-7v21h7V21c0-2 0-5 4-5 3 0 3 3 3 6v10h7zM1 11h6v21H1V11zM4 0C2 0 0 2 0 4s2 4 4 4 4-2 4-4-2-4-4-4z"/>
    </symbol>
    <symbol id="icon-diagram" viewBox="0 0 32 32">
      <path fill="#2196f3" style="fill:var(--color3, #2196f3)" d="M15 15h1v5h-1v-5zm4 2h1v3h-1v-3zm-8 2h1v1h-1v-1zm-4-1h2v2H7v-2z"/>
      <path fill="#212121" style="fill:var(--color4, #212121)" d="M2 28h25l2-1v-2l-2-2V10l3-3a2 2 0 1 0-1-1l-2 2V7l-2-2H4L2 7v16l-2 2v2l2 1zM30 5a1 1 0 0 1 0 1 1 1 0 0 1 0-1zM3 7l1-1h21l1 1v2l-1 1V8H4v13l1 1h19l1-1v-9l1-1v12H3V7zm5 7a2 2 0 1 0 1 3l2 1 1-1 4-4 3 3h1l3-3v8H5V9h18v2l-3 4-4-3h-1l-4 4h-1v-1l-2-1zm1 1a1 1 0 0 1-2 0 1 1 0 0 1 2 0zm3 9h5v1h-5v-1zM1 25l1-1h9v1l1 1h5l1-1v-1h9l1 1v2H1v-2z"/>
    </symbol>
    <symbol id="icon-clock" viewBox="0 0 32 32">
      <path fill="#212121" style="fill:var(--color4, #212121)" d="M31 15a15 15 0 1 0-20 15h1v-1l4-12a2 2 0 1 0-1-3l-5-6a1 1 0 0 0-1 1l5 5v1l1 2-4 11a14 14 0 1 1 11 0l-1-2a1 1 0 0 0-1 0l-4 3v1h1l5 2a1 1 0 0 0 0-1v-2c5-2 9-7 9-14zm-15 0a1 1 0 0 1 0 1 1 1 0 0 1 0-1zm2 15 2-2 1 2h-3z"/>
      <path fill="#2196f3" style="fill:var(--color3, #2196f3)" d="M15 3v1a1 1 0 0 0 2 0V3a1 1 0 1 0-2 0zM4 15a1 1 0 0 0 0 1h1a1 1 0 0 0 0-1H4zm24 1a1 1 0 0 0 0-1h-1a1 1 0 0 0 0 1h1z"/>
    </symbol>
    <symbol id="icon-antenna" viewBox="0 0 32 32">
      <path fill="#212121" style="fill:var(--color4, #212121)" d="m31 22-9-8 1-5h1a2 2 0 1 0-2-1h-5L9 0H8L7 2l1 1c-2 2-2 5-2 7 0 4 1 8 4 11v7H4c-2 0-3 1-3 2v1l1 1h24l1-1v-1l-3-2h-6v-3a15 15 0 0 0 10-2v1h1v1-1l2-1a1 1 0 0 0 0-1zM23 6h1a1 1 0 0 1 0 2 1 1 0 0 1-1-2zm-1 4-1 3-1-2 2-1zm-1-1-2 2-1-2h3zm3 20 2 1v1H2v-1l2-1h20zm-7-2v1h-6v-1h6zm-6-1v-4c0-2 1-3 3-3s3 1 3 3v4h-6zm7-2v-2c0-2-2-4-4-4s-3 1-3 2A14 14 0 0 1 8 4l19 19a14 14 0 0 1-9 1zm11-1L8 2l1-1 8 8 13 13-1 1z"/>
      <path fill="#2196f3" style="fill:var(--color3, #2196f3)" d="M14 20a2 2 0 0 0 0 3 2 2 0 0 0 0-3zm0 2a1 1 0 0 1 0-1 1 1 0 0 1 0 1z"/>
    </symbol>
  </defs>
</svg>
